<mxfile host="app.diagrams.net" modified="2022-05-24T16:34:07.022Z" agent="5.0 (Windows NT 10.0; WOW64) AppleWebKit/537.36 (KHTML, like Gecko) Chrome/75.0.3770.100 Safari/537.36" etag="gdhyEHMhEUDuN1QdSFDV" version="18.1.2" type="github">
  <diagram id="xjabfp815dfv-7CEwPIz" name="第 1 页">
    <mxGraphModel dx="1038" dy="544" grid="1" gridSize="10" guides="1" tooltips="1" connect="1" arrows="1" fold="1" page="1" pageScale="1" pageWidth="827" pageHeight="1169" math="0" shadow="0">
      <root>
        <mxCell id="0" />
        <mxCell id="1" parent="0" />
        <mxCell id="B-eby6DjghB-gaP1Cl-w-1" value="&lt;font style=&quot;font-size: 19px;&quot;&gt;Spring Boot&lt;/font&gt;" style="rounded=1;whiteSpace=wrap;html=1;fillColor=#dae8fc;strokeColor=#6c8ebf;fontStyle=1;gradientColor=none;" vertex="1" parent="1">
          <mxGeometry x="360" y="330" width="120" height="60" as="geometry" />
        </mxCell>
        <mxCell id="B-eby6DjghB-gaP1Cl-w-7" value="数据库(Mysql、MongoDB)" style="ellipse;whiteSpace=wrap;html=1;fillColor=#ffe6cc;strokeColor=#d79b00;" vertex="1" parent="1">
          <mxGeometry x="100" y="70" width="140" height="50" as="geometry" />
        </mxCell>
        <mxCell id="B-eby6DjghB-gaP1Cl-w-8" value="ORM(Mybatis、Mybatis Plus、JPA)" style="ellipse;whiteSpace=wrap;html=1;fillColor=#ffe6cc;strokeColor=#d79b00;" vertex="1" parent="1">
          <mxGeometry x="100" y="130" width="140" height="50" as="geometry" />
        </mxCell>
        <mxCell id="B-eby6DjghB-gaP1Cl-w-53" value="ORM(Mybatis、Mybatis Plus、JPA)" style="ellipse;whiteSpace=wrap;html=1;fillColor=#ffe6cc;strokeColor=#d79b00;" vertex="1" parent="1">
          <mxGeometry x="100" y="190" width="140" height="50" as="geometry" />
        </mxCell>
        <mxCell id="B-eby6DjghB-gaP1Cl-w-54" value="ORM(Mybatis、Mybatis Plus、JPA)" style="ellipse;whiteSpace=wrap;html=1;fillColor=#ffe6cc;strokeColor=#d79b00;" vertex="1" parent="1">
          <mxGeometry x="100" y="250" width="140" height="50" as="geometry" />
        </mxCell>
        <mxCell id="B-eby6DjghB-gaP1Cl-w-55" value="ORM(Mybatis、Mybatis Plus、JPA)" style="ellipse;whiteSpace=wrap;html=1;fillColor=#ffe6cc;strokeColor=#d79b00;" vertex="1" parent="1">
          <mxGeometry x="100" y="310" width="140" height="50" as="geometry" />
        </mxCell>
        <mxCell id="B-eby6DjghB-gaP1Cl-w-56" value="ORM(Mybatis、Mybatis Plus、JPA)" style="ellipse;whiteSpace=wrap;html=1;fillColor=#ffe6cc;strokeColor=#d79b00;" vertex="1" parent="1">
          <mxGeometry x="100" y="370" width="140" height="50" as="geometry" />
        </mxCell>
        <mxCell id="B-eby6DjghB-gaP1Cl-w-57" value="ORM(Mybatis、Mybatis Plus、JPA)" style="ellipse;whiteSpace=wrap;html=1;fillColor=#ffe6cc;strokeColor=#d79b00;" vertex="1" parent="1">
          <mxGeometry x="100" y="430" width="140" height="50" as="geometry" />
        </mxCell>
        <mxCell id="B-eby6DjghB-gaP1Cl-w-58" value="ORM(Mybatis、Mybatis Plus、JPA)" style="ellipse;whiteSpace=wrap;html=1;fillColor=#ffe6cc;strokeColor=#d79b00;" vertex="1" parent="1">
          <mxGeometry x="100" y="490" width="140" height="50" as="geometry" />
        </mxCell>
        <mxCell id="B-eby6DjghB-gaP1Cl-w-59" value="ORM(Mybatis、Mybatis Plus、JPA)" style="ellipse;whiteSpace=wrap;html=1;fillColor=#ffe6cc;strokeColor=#d79b00;" vertex="1" parent="1">
          <mxGeometry x="100" y="550" width="140" height="50" as="geometry" />
        </mxCell>
        <mxCell id="B-eby6DjghB-gaP1Cl-w-60" value="ORM(Mybatis、Mybatis Plus、JPA)" style="ellipse;whiteSpace=wrap;html=1;fillColor=#ffe6cc;strokeColor=#d79b00;" vertex="1" parent="1">
          <mxGeometry x="100" y="610" width="140" height="50" as="geometry" />
        </mxCell>
      </root>
    </mxGraphModel>
  </diagram>
</mxfile>
